
<global>
ampeg_attack=0.01
ampeg_release=0.35
</global>

<group>
group_label=Group

<region>
hikey=B2
hivel=127
lokey=A#2
lovel=0
offset=6262
pitch_keycenter=A#2
sample=Taylornylon3_Scoop_MP_A#2.opus
volume=-2.80
</region>

<region>
hikey=B3
hivel=127
lokey=A#3
lovel=0
offset=5965
pitch_keycenter=A#3
sample=Taylornylon3_Scoop_MP_A#3.opus
volume=-0.89
</region>

<region>
end=128488
hikey=B4
hivel=127
lokey=A#4
lovel=0
offset=6598
pitch_keycenter=A#4
sample=Taylornylon3_Scoop_MP_A#4.opus
volume=+4.18
</region>

<region>
hikey=C#3
hivel=127
lokey=C3
lovel=0
offset=2967
pitch_keycenter=C3
sample=Taylornylon3_Scoop_MP_C3.opus
volume=-0.96
</region>

<region>
end=144729
hikey=C#4
hivel=127
lokey=C4
lovel=0
offset=6928
sample=Taylornylon3_Scoop_MP_C4.opus
volume=+7.17
</region>

<region>
end=139699
hikey=C#5
hivel=127
lokey=C5
lovel=0
offset=9286
pitch_keycenter=C5
sample=Taylornylon3_Scoop_MP_C5.opus
volume=+10.05
</region>

<region>
hikey=D#2
hivel=127
lokey=C2
lovel=0
offset=4653
pitch_keycenter=D2
sample=Taylornylon3_Scoop_MP_D2.opus
volume=+7.24
</region>

<region>
hikey=D#3
hivel=127
lokey=D3
lovel=0
offset=4275
pitch_keycenter=D3
sample=Taylornylon3_Scoop_MP_D3.opus
volume=+0.05
</region>

<region>
end=145242
hikey=D#4
hivel=127
lokey=D4
lovel=0
offset=8403
pitch_keycenter=D4
sample=Taylornylon3_Scoop_MP_D4.opus
volume=+10.24
</region>

<region>
end=144735
hikey=D#5
hivel=127
lokey=D5
lovel=0
offset=7950
pitch_keycenter=D5
sample=Taylornylon3_Scoop_MP_D5.opus
volume=+9.23
</region>

<region>
hikey=F2
hivel=127
lokey=E2
lovel=0
offset=8155
pitch_keycenter=E2
sample=Taylornylon3_Scoop_MP_E2.opus
volume=+1.79
</region>

<region>
hikey=F3
hivel=127
lokey=E3
lovel=0
offset=8377
pitch_keycenter=E3
sample=Taylornylon3_Scoop_MP_E3.opus
volume=-0.32
</region>

<region>
end=132556
hikey=F4
hivel=127
lokey=E4
lovel=0
offset=5525
pitch_keycenter=E4
sample=Taylornylon3_Scoop_MP_E4.opus
volume=+10.43
</region>

<region>
end=144049
hikey=F5
hivel=127
lokey=E5
lovel=0
offset=8192
pitch_keycenter=E5
sample=Taylornylon3_Scoop_MP_E5.opus
volume=+9.36
</region>

<region>
hikey=G2
hivel=127
lokey=F#2
lovel=0
offset=1207
pitch_keycenter=F#2
sample=Taylornylon3_Scoop_MP_F#2.opus
volume=-2.01
</region>

<region>
hikey=G3
hivel=127
lokey=F#3
lovel=0
offset=5062
pitch_keycenter=F#3
sample=Taylornylon3_Scoop_MP_F#3.opus
volume=-2.50
</region>

<region>
hikey=G4
hivel=127
lokey=F#4
lovel=0
offset=5351
pitch_keycenter=F#4
sample=Taylornylon3_Scoop_MP_F#4.opus
volume=+11.07
</region>

<region>
end=142644
hikey=G5
hivel=127
lokey=F#5
lovel=0
offset=9348
pitch_keycenter=F#5
sample=Taylornylon3_Scoop_MP_F#5.opus
volume=+10.76
</region>

<region>
hikey=A2
hivel=127
lokey=G#2
lovel=0
offset=8334
pitch_keycenter=G#2
sample=Taylornylon3_Scoop_MP_G#2.opus
volume=-5.24
</region>

<region>
hikey=A3
hivel=127
lokey=G#3
lovel=0
offset=6313
pitch_keycenter=G#3
sample=Taylornylon3_Scoop_MP_G#3.opus
volume=-5.07
</region>

<region>
hikey=A4
hivel=127
lokey=G#4
lovel=0
offset=7505
pitch_keycenter=G#4
sample=Taylornylon3_Scoop_MP_G#4.opus
volume=+12.05
</region>

<region>
end=102333
hikey=C6
hivel=127
lokey=G#5
lovel=0
offset=8954
pitch_keycenter=G#5
sample=Taylornylon3_Scoop_MP_G#5.opus
volume=+11.70
</region>
</group>